<mxfile host="65bd71144e">
    <diagram id="06IbtNXLgIfeKJk-ymKH" name="Page-1">
        <mxGraphModel dx="690" dy="253" grid="1" gridSize="10" guides="1" tooltips="1" connect="1" arrows="1" fold="1" page="0" pageScale="1" pageWidth="850" pageHeight="1100" background="#ffffff" math="0" shadow="0">
            <root>
                <mxCell id="0"/>
                <mxCell id="1" parent="0"/>
                <mxCell id="4" value="" style="pointerEvents=1;fillColor=#bac8d3;verticalLabelPosition=bottom;shadow=0;dashed=0;align=center;html=1;verticalAlign=top;shape=mxgraph.electrical.diodes.diode;strokeColor=#23445d;rotation=-90;" parent="1" vertex="1">
                    <mxGeometry x="200" y="340" width="81.25" height="37.5" as="geometry"/>
                </mxCell>
                <mxCell id="5" value="&lt;font color=&quot;#666666&quot;&gt;V&lt;sub&gt;dd&lt;/sub&gt;&lt;/font&gt;" style="verticalLabelPosition=top;verticalAlign=bottom;shape=mxgraph.electrical.signal_sources.vdd;shadow=0;dashed=0;align=center;strokeWidth=1;fontSize=24;html=1;flipV=1;fillColor=#bac8d3;strokeColor=#23445d;" parent="1" vertex="1">
                    <mxGeometry x="450" y="100" width="60" height="40" as="geometry"/>
                </mxCell>
                <mxCell id="9" value="" style="verticalLabelPosition=bottom;shadow=0;dashed=0;align=center;html=1;verticalAlign=top;shape=mxgraph.electrical.abstract.operational_amp_1;fontColor=#666666;strokeColor=#000000;fillColor=#808080;" parent="1" vertex="1">
                    <mxGeometry x="600" y="230" width="98" height="90" as="geometry"/>
                </mxCell>
                <mxCell id="10" value="" style="pointerEvents=1;fillColor=#bac8d3;verticalLabelPosition=bottom;shadow=0;dashed=0;align=center;html=1;verticalAlign=top;shape=mxgraph.electrical.diodes.diode;strokeColor=#23445d;rotation=-90;" parent="1" vertex="1">
                    <mxGeometry x="200" y="230" width="81.25" height="37.5" as="geometry"/>
                </mxCell>
                <mxCell id="11" value="V&lt;sub&gt;ss&lt;/sub&gt;" style="pointerEvents=1;verticalLabelPosition=bottom;shadow=0;dashed=0;align=center;html=1;verticalAlign=top;shape=mxgraph.electrical.signal_sources.vss2;fontSize=24;flipV=1;fontColor=#666666;strokeColor=#000000;fillColor=#808080;" parent="1" vertex="1">
                    <mxGeometry x="450" y="480" width="60" height="40" as="geometry"/>
                </mxCell>
                <mxCell id="12" value="" style="pointerEvents=1;verticalLabelPosition=bottom;shadow=0;dashed=0;align=center;html=1;verticalAlign=top;shape=mxgraph.electrical.capacitors.capacitor_1;fontColor=#666666;strokeColor=#000000;fillColor=#808080;rotation=-90;" parent="1" vertex="1">
                    <mxGeometry x="350" y="360" width="80" height="40" as="geometry"/>
                </mxCell>
            </root>
        </mxGraphModel>
    </diagram>
</mxfile>